<?xml version="1.0" encoding="utf-8"?>
<!-- Generator: Adobe Illustrator 16.0.0, SVG Export Plug-In . SVG Version: 6.00 Build 0)  -->
<!DOCTYPE svg PUBLIC "-//W3C//DTD SVG 1.1//EN" "http://www.w3.org/Graphics/SVG/1.1/DTD/svg11.dtd">
<svg version="1.1" id="Layer_1" xmlns="http://www.w3.org/2000/svg" xmlns:xlink="http://www.w3.org/1999/xlink" x="0px" y="0px"
	 width="600px" height="600px" viewBox="0 0 600 600" enable-background="new 0 0 600 600" xml:space="preserve">
<path fill="#F8FE85" stroke="#FFFFFF" stroke-miterlimit="10" d="M417.218,262.15c0,19.35-8.569,36.649-22.08,48.439l-91.159,91.16
	c-1.561,1.56-3.67,2.43-5.871,2.43c-2.21,0-4.32-0.87-5.87-2.43l-85.06-85.05l21.84-26.88l49.16,30.56l53.95-63.05l45.53,33.43
	l39.05-36.739C417.048,256.69,417.218,259.4,417.218,262.15z"/>
<path fill="#2BE5A6" stroke="#FFFFFF" stroke-miterlimit="10" d="M416.708,254.021l-39.05,36.739l-45.53-33.43l-53.95,63.05
	l-49.16-30.56l-21.84,26.88l-6.11-6.11c-13.5-11.79-22.08-29.09-22.08-48.439c0-35.53,28.8-64.33,64.33-64.33
	c23.2,0,43.47,12.32,54.79,30.729c11.32-18.409,31.581-30.729,54.78-30.729C385.668,197.82,412.718,222.33,416.708,254.021z"/>
<line fill="none" stroke="#FFFFFF" stroke-width="5" stroke-miterlimit="10" x1="207.178" y1="316.7" x2="202.238" y2="322.79"/>
<polyline fill="none" stroke="#FFFFFF" stroke-width="5" stroke-miterlimit="10" points="202.24,322.787 229.014,289.823 
	278.175,320.378 332.124,257.326 377.66,290.76 419.012,251.85 "/>
<circle fill="#FFFFFF" cx="229.033" cy="291.823" r="7.522"/>
<circle fill="#FFFFFF" cx="278.021" cy="317.455" r="8.567"/>
<circle fill="#FFFFFF" cx="332.112" cy="259.413" r="8.568"/>
<circle fill="#FFFFFF" cx="377.509" cy="288.514" r="8.568"/>
</svg>
